<svg width="20" height="20" viewBox="0 0 20 20" fill="none" xmlns="http://www.w3.org/2000/svg">
<path d="M7.22 18.5V9.13378C7.22 8.58149 7.66772 8.13378 8.22 8.13378H11.9417C12.494 8.13378 12.9417 8.58149 12.9417 9.13378V18.5M7.22 18.5L7.22135 14.4759C7.22153 13.9235 6.77376 13.4756 6.22135 13.4756H2.5C1.94772 13.4756 1.5 13.9233 1.5 14.4756V17.5C1.5 18.0523 1.94772 18.5 2.5 18.5H7.22ZM7.22 18.5H12.9417M12.9417 18.5V2.5C12.9417 1.94772 13.3894 1.5 13.9417 1.5H17.5C18.0523 1.5 18.5 1.94772 18.5 2.5V17.5C18.5 18.0523 18.0523 18.5 17.5 18.5H12.9417Z" stroke="#555555" stroke-width="1.4" stroke-linecap="round" stroke-linejoin="round"/>
</svg>
