<svg width="13" height="12" viewBox="0 0 13 12" fill="none" xmlns="http://www.w3.org/2000/svg">
<path d="M9.5 1.20024H11.9C12.0591 1.20024 12.2117 1.26346 12.3243 1.37598C12.4368 1.4885 12.5 1.64111 12.5 1.80024V11.4002C12.5 11.5594 12.4368 11.712 12.3243 11.8245C12.2117 11.937 12.0591 12.0002 11.9 12.0002H1.1C0.94087 12.0002 0.788258 11.937 0.675736 11.8245C0.563214 11.712 0.5 11.5594 0.5 11.4002V1.80024C0.5 1.64111 0.563214 1.4885 0.675736 1.37598C0.788258 1.26346 0.94087 1.20024 1.1 1.20024H3.5V0.000244141H4.7V1.20024H8.3V0.000244141H9.5V1.20024ZM8.3 2.40024H4.7V3.60024H3.5V2.40024H1.7V4.80024H11.3V2.40024H9.5V3.60024H8.3V2.40024ZM11.3 6.00024H1.7V10.8002H11.3V6.00024Z" fill="#777777"/>
</svg>
