<svg width="20" height="20" viewBox="0 0 20 20" fill="none" xmlns="http://www.w3.org/2000/svg">
<path d="M10 1C5.02944 1 1 5.02944 1 10C1 14.9706 5.02944 19 10 19C14.9706 19 19 14.9706 19 10C19 5.02944 14.9706 1 10 1ZM10 1C11.9812 1 13.9071 1.65374 15.4789 2.85982C16.7215 3.81332 17.6879 5.06991 18.2916 6.5M10 1V10M10 10L16.364 16.364C17.4811 15.2469 18.2844 13.8554 18.6933 12.3294C19.1022 10.8034 19.1022 9.19662 18.6933 7.67063C18.5859 7.26985 18.4515 6.87884 18.2916 6.5M10 10L18.2916 6.5" stroke="#555555" stroke-width="1.4" stroke-linejoin="round"/>
</svg>
